<svg xmlns="http://www.w3.org/2000/svg" viewBox="0 0 64 64" role="img" aria-label="GitHub Copilot">
  <rect width="64" height="64" rx="14" fill="#111827"/>
  <path d="M18 36c0-9.4 5.9-16 14-16s14 6.6 14 16" fill="none" stroke="#f9fafb" stroke-width="5" stroke-linecap="round"/>
  <circle cx="25" cy="38" r="4" fill="#22c55e"/>
  <circle cx="39" cy="38" r="4" fill="#22c55e"/>
  <path d="M21 28c-3.4 1.1-6 4.6-6 8.8 0 5 3.4 9.2 7.6 9.2H26V33h-3.4c-.6 0-1.1.1-1.6.2" fill="#374151"/>
  <path d="M43 28c3.4 1.1 6 4.6 6 8.8 0 5-3.4 9.2-7.6 9.2H38V33h3.4c.6 0 1.1.1 1.6.2" fill="#374151"/>
  <path d="M25 50h14" stroke="#9ca3af" stroke-width="4" stroke-linecap="round"/>
</svg>
