<svg width="400" height="103" viewBox="0 0 400 103" fill="none" xmlns="http://www.w3.org/2000/svg">
<path d="M30.661 56.4638C30.661 51.019 35.1617 46.5515 40.647 46.5515C46.1322 46.5515 50.6329 51.019 50.6329 56.4638C50.6329 61.9085 46.1322 66.376 40.647 66.376C35.0211 66.376 30.661 62.0481 30.661 56.4638ZM40.647 15C21.097 15 4.64135 28.2628 0 46.2723C0 46.4119 0 46.5515 0 46.6912C0 47.808 0.843882 48.6457 1.96906 48.6457H18.8467C19.6906 48.6457 20.3938 48.2268 20.6751 47.5288C24.1913 39.9899 31.7862 34.8244 40.647 34.8244C52.7426 34.8244 62.5879 44.597 62.5879 56.6034C62.5879 68.6097 52.7426 78.3823 40.647 78.3823C31.7862 78.3823 24.1913 73.2168 20.6751 65.6779C20.3938 64.9799 19.6906 64.5611 18.8467 64.5611H1.96906C0.843882 64.4214 0 65.2591 0 66.376C0 66.5156 0 66.6552 0 66.7948C4.64135 84.8043 21.097 98.0671 40.647 98.0671C63.7131 98.0671 82.4191 79.4992 82.4191 56.6034C82.4191 33.5679 63.7131 15 40.647 15ZM149.93 66.2364H144.304C143.882 66.2364 143.601 66.376 143.319 66.6552C140.084 71.5415 134.459 74.7525 128.129 74.7525C117.862 74.7525 109.705 66.6552 109.705 56.4638C109.705 46.2723 118.003 38.175 128.129 38.175C134.459 38.175 140.084 41.386 143.319 46.2723C143.601 46.5515 143.882 46.6912 144.304 46.6912H149.93C150.633 46.6912 151.195 46.1327 151.195 45.4347C151.195 45.2951 151.195 45.0158 151.055 44.8762C146.835 36.4997 138.115 30.7758 128.129 30.7758C113.924 30.7758 102.391 42.2237 102.391 56.3241C102.391 70.7038 113.924 82.0121 128.129 82.0121C138.115 82.0121 146.835 76.2882 151.055 67.9117C151.195 67.772 151.195 67.6324 151.195 67.3532C151.195 66.7948 150.633 66.2364 149.93 66.2364ZM167.089 22.3993C167.089 25.0518 164.838 27.2856 162.166 27.2856C159.494 27.2856 157.243 25.0518 157.243 22.3993C157.243 19.7467 159.494 17.513 162.166 17.513C164.979 17.6526 167.089 19.7467 167.089 22.3993ZM165.963 79.6388V32.1719H158.65V79.6388C158.65 80.3368 159.212 80.8953 159.916 80.8953H164.838C165.401 80.8953 165.963 80.3368 165.963 79.6388ZM197.75 31.055C190.295 31.3342 184.388 34.964 180.591 40.2692V33.4283C180.591 32.7303 180.028 32.1719 179.325 32.1719H174.402C173.699 32.1719 173.136 32.7303 173.136 33.4283V79.6388C173.136 80.3368 173.699 80.8953 174.402 80.8953H179.325C180.028 80.8953 180.591 80.3368 180.591 79.6388V56.4638C180.591 46.8308 188.186 38.8731 197.75 38.3146C198.453 38.3146 199.015 37.7562 199.015 37.0582V32.1719C199.015 31.6134 198.453 31.055 197.75 31.055ZM246.695 66.2364H241.069C240.647 66.2364 240.366 66.376 240.084 66.6552C236.85 71.5415 231.224 74.7525 224.895 74.7525C214.768 74.7525 206.47 66.5156 206.47 56.4638C206.47 46.4119 214.768 38.175 224.895 38.175C231.224 38.175 236.85 41.386 240.084 46.2723C240.366 46.5515 240.647 46.6912 241.069 46.6912H246.695C247.398 46.6912 247.961 46.1327 247.961 45.4347C247.961 45.2951 247.961 45.0158 247.82 44.8762C243.601 36.4997 234.88 30.7758 224.895 30.7758C210.689 30.7758 199.156 42.2237 199.156 56.3241C199.156 70.4246 210.689 81.8725 224.895 81.8725C234.88 81.8725 243.601 76.1486 247.82 67.772C247.961 67.6324 247.961 67.4928 247.961 67.2136C247.82 66.7948 247.398 66.2364 246.695 66.2364ZM261.322 16.3961H256.399C255.696 16.3961 255.134 16.9545 255.134 17.6526V79.7784C255.134 80.4764 255.696 81.0349 256.399 81.0349H261.322C262.025 81.0349 262.588 80.4764 262.588 79.7784V17.6526C262.588 16.9545 262.025 16.3961 261.322 16.3961ZM295.64 30.9154C281.435 30.9154 269.902 42.3633 269.902 56.4638C269.902 70.5642 281.435 82.0121 295.64 82.0121C305.626 82.0121 314.346 76.2882 318.565 67.9117C318.706 67.772 318.706 67.6324 318.706 67.3532C318.706 66.6552 318.143 66.0967 317.44 66.0967H311.814C311.392 66.0967 311.111 66.2364 310.83 66.6552C307.454 71.5415 301.969 74.6129 295.64 74.6129C286.357 74.6129 278.622 67.772 277.356 58.8371H320.113C320.816 58.8371 321.238 58.2787 321.378 57.7202C321.378 57.3014 321.378 56.8826 321.378 56.4638C321.378 42.3633 309.845 30.9154 295.64 30.9154ZM277.918 51.7171C280.028 44.0386 287.201 38.3146 295.64 38.3146C304.079 38.3146 311.252 44.0386 313.361 51.7171H277.918ZM392.686 15.1396C388.608 15.1396 385.373 18.3506 385.373 22.3993C385.373 26.4479 388.608 29.6589 392.686 29.6589C396.765 29.6589 400 26.4479 400 22.3993C400 18.4902 396.765 15.1396 392.686 15.1396ZM398.734 32.1719V79.6388C398.734 80.3368 398.172 80.8953 397.468 80.8953H387.623C386.92 80.8953 386.357 80.3368 386.357 79.6388V32.1719H398.734ZM354.571 82.0121C366.526 82.0121 376.653 73.7752 379.466 62.7461C379.466 62.6065 379.466 62.6065 379.466 62.4669C379.466 61.7689 378.903 61.2104 378.2 61.2104H367.792C367.229 61.2104 366.807 61.4897 366.667 61.9085C364.557 66.5156 359.916 69.7266 354.43 69.7266C346.976 69.7266 340.928 63.7234 340.928 56.3241C340.928 48.9249 346.976 42.9217 354.43 42.9217C359.916 42.9217 364.557 46.1327 366.667 50.7398C366.807 51.1586 367.229 51.4378 367.792 51.4378H378.2C378.903 51.4378 379.466 50.8794 379.466 50.1814C379.466 50.0418 379.466 50.0418 379.466 49.9021C376.653 38.8731 366.526 30.6362 354.571 30.6362C340.366 30.6362 328.833 42.0841 328.833 56.1845C328.833 70.7038 340.366 82.0121 354.571 82.0121Z" fill="#171717"/>
</svg>
