<svg width="139" height="40" viewBox="0 0 139 40" fill="none" xmlns="http://www.w3.org/2000/svg">
<path d="M6.36764 16.0917C7.32203 12.5678 9.63126 9.56442 12.7881 7.74239L9.83149 2.63672C5.3198 5.23961 2.02281 9.53105 0.667969 14.5633L6.36764 16.0917Z" fill="#0f172a"/>
<path d="M16.1182 6.3604C17.2795 6.05339 18.4742 5.89322 19.6755 5.89989V0C17.9603 0 16.2517 0.220245 14.5898 0.660734L16.1182 6.3604Z" fill="#0f172a"/>
<path d="M23.2598 6.36666C26.777 7.32105 29.7803 9.63029 31.6024 12.7871L36.7147 9.83718C34.1052 5.3255 29.8137 2.02851 24.7881 0.666992L23.2598 6.36666Z" fill="#0f172a"/>
<path d="M0 19.6553C0 21.3705 0.220245 23.0791 0.667408 24.7409L6.36708 23.2126C6.05339 22.0513 5.89989 20.8566 5.89989 19.6553H0Z" fill="#0f172a"/>
<path d="M2.63672 29.4929C3.49768 30.9746 4.54551 32.3427 5.75352 33.5508L9.94484 29.3861C9.09723 28.5318 8.36308 27.5775 7.75574 26.543L2.63672 29.4929Z" fill="#0f172a"/>
<path d="M9.83984 36.6866C12.8232 38.4152 16.2136 39.3228 19.6574 39.3162V33.4163C17.2481 33.4163 14.8788 32.7822 12.7898 31.5742L9.83984 36.6866Z" fill="#0f172a"/>
<path d="M31.5942 26.5566C29.7655 29.7068 26.7622 32.0094 23.2383 32.9504L24.7666 38.6501C29.7989 37.2952 34.0903 34.0049 36.6999 29.4999L31.5942 26.5566Z" fill="#0f172a"/>
<path d="M38.9161 24.7341C39.8238 21.3971 39.8372 17.8798 38.9629 14.5361L33.2432 16.0645C33.8572 18.4071 33.8438 20.8698 33.2031 23.2058L38.9161 24.7341Z" fill="#0f172a"/>
<path d="M62.2624 17.5331C61.5683 15.7711 60.0466 14.73 58.3714 14.73C55.8086 14.73 54.0733 16.9258 54.0733 19.4219C54.0733 22.0248 55.8553 24.2005 58.3981 24.2005C60.0266 24.2005 61.4148 23.2862 62.2624 21.4842H66.5605C65.5594 25.3484 62.2424 27.8045 58.4382 27.8045C56.2023 27.8045 54.0933 27.0236 52.4448 25.3952C50.7096 23.7 49.9688 21.6577 49.9688 19.2283C49.9688 14.9702 53.6395 11.126 58.2446 11.126C60.4604 11.126 62.2424 11.7333 63.8508 13.1015C65.3725 14.403 66.2869 15.8846 66.5672 17.5331H62.2624Z" fill="#0f172a"/>
<path d="M74.4704 27.8709C70.7997 27.8709 67.9766 25.1545 67.9766 21.4638C67.9766 17.7263 70.8664 15.0566 74.4704 15.0566C78.0945 15.0566 80.9643 17.773 80.9643 21.4237C80.9643 25.1946 78.1012 27.8709 74.4704 27.8709ZM77.3603 21.4638C77.3603 19.8553 76.1456 18.4204 74.4504 18.4204C72.862 18.4204 71.5872 19.8086 71.5872 21.4638C71.5872 23.1123 72.8486 24.5071 74.4771 24.5071C76.1657 24.5005 77.3603 23.0655 77.3603 21.4638Z" fill="#0f172a"/>
<path d="M92.1294 27.497V26.1955H92.0894C91.4153 27.3034 90.2006 27.8907 88.4854 27.8907C84.8346 27.8907 82.4453 25.0876 82.4453 21.4369C82.4453 17.8329 84.9014 15.0298 88.4186 15.0298C89.8068 15.0298 90.9347 15.4436 91.9559 16.4647V11.4258H95.5599V27.497H92.1294ZM92.1494 21.4169C92.1494 19.7417 90.868 18.4002 89.086 18.4002C87.3908 18.4002 86.0426 19.6616 86.0426 21.4169C86.0426 23.2389 87.3241 24.5203 89.0593 24.5203C90.828 24.5203 92.1494 23.1989 92.1494 21.4169Z" fill="#0f172a"/>
<path d="M107.227 27.4975V26.196H107.187C106.666 27.2639 105.231 27.9113 103.649 27.9113C100.085 27.9113 97.6094 25.1081 97.6094 21.4574C97.6094 17.8935 100.192 15.0303 103.649 15.0303C105.124 15.0303 106.493 15.6176 107.187 16.7255H107.227V15.4441H110.831V27.4975H107.227ZM107.227 21.4641C107.227 19.7689 105.859 18.4007 104.163 18.4007C102.515 18.4007 101.207 19.7689 101.207 21.5041C101.207 23.1793 102.528 24.5475 104.203 24.5475C105.905 24.5475 107.227 23.1994 107.227 21.4641Z" fill="#0f172a"/>
<path d="M121.976 20.0959C121.456 18.968 120.522 18.4007 119.28 18.4007C117.632 18.4007 116.497 19.7689 116.497 21.4641C116.497 23.226 117.692 24.5275 119.367 24.5275C120.582 24.5275 121.429 23.9669 121.976 22.919H125.647C124.933 25.9357 122.344 27.8912 119.26 27.8912C115.696 27.8912 112.873 25.0014 112.873 21.4374C112.873 17.8334 115.723 15.0303 119.193 15.0303C122.364 15.0303 124.946 17.0258 125.621 20.0892H121.976V20.0959Z" fill="#0f172a"/>
<path d="M128.477 31.5146L130.386 26.8894L125.914 15.4434H129.758L132.168 22.4378H132.208L134.51 15.4434H138.335L132.294 31.5146H128.477Z" fill="#0f172a"/>
</svg>
