<svg width="146" height="28" viewBox="0 0 146 28" fill="currentColor" xmlns="http://www.w3.org/2000/svg">
        <path d="M31.593 8.317C29.707 2.949 24.897 0 18.111 0C11.325 0 6.56598 2.949 4.64998 8.317C4.05098 9.996 3.75198 11.866 3.75198 13.875C3.75198 17.744 4.24098 20.663 5.25898 22.822C7.54398 27.63 12.015 28 18.102 28C24.189 28 28.659 27.63 30.945 22.822C31.953 20.703 32.452 17.784 32.452 13.875C32.472 11.896 32.182 10.026 31.593 8.317ZM30.046 15.704C30.046 17.843 29.687 19.703 28.968 21.222C26.952 25.43 22.342 25.99 18.101 25.99C13.86 25.99 9.25998 25.42 7.23398 21.222C6.52598 19.723 6.15598 17.863 6.15598 15.704C6.15598 13.335 6.51498 11.456 7.26398 9.966C8.88098 6.717 12.423 5.138 18.091 5.138C23.759 5.138 27.301 6.717 28.918 9.966C29.666 11.455 30.026 13.335 30.026 15.704H30.046ZM2.54498 13.875C2.54498 11.856 2.85398 9.986 3.45298 8.337C3.50298 8.237 3.45298 8.137 3.43298 8.097C3.37298 7.977 3.25298 7.977 3.17398 7.977C1.36798 8.357 0.000976562 11.626 0.000976562 15.594C0.000976562 19.882 1.54798 23.251 3.52398 23.251C3.65398 23.251 3.77298 23.231 3.88298 23.211C3.94298 23.211 4.03298 23.191 4.09298 23.071C4.13298 22.991 4.13298 22.931 4.09298 22.851C3.04498 20.692 2.54598 17.753 2.54598 13.874L2.54498 13.875ZM33.02 7.957C33.02 7.957 32.85 7.957 32.791 8.077C32.791 8.077 32.721 8.217 32.771 8.307C33.38 9.966 33.689 11.836 33.689 13.855C33.689 17.764 33.18 20.703 32.142 22.832C32.102 22.912 32.102 22.972 32.142 23.052C32.192 23.162 32.282 23.192 32.322 23.192C32.452 23.212 32.571 23.232 32.711 23.232C34.657 23.232 36.234 19.793 36.234 15.575C36.214 11.547 34.877 8.338 33.021 7.958L33.02 7.957ZM111.004 18.453C110.745 19.693 109.827 20.402 108.49 20.402C106.654 20.402 105.456 19.052 105.456 16.963C105.456 14.874 106.644 13.524 108.49 13.524C109.777 13.524 110.775 14.294 110.964 15.453L110.994 15.603L112.92 15.213L112.89 15.073C112.521 13.054 110.775 11.754 108.44 11.754C105.446 11.754 103.43 13.853 103.43 16.962C103.43 20.071 105.446 22.17 108.44 22.17C110.805 22.17 112.481 20.92 112.91 18.841L112.94 18.691L111.034 18.301L111.004 18.451V18.453ZM119.007 11.766C116.123 11.766 114.108 13.905 114.108 16.974C114.108 20.043 116.183 22.182 119.047 22.182C121.392 22.182 123.079 21.012 123.578 19.053L123.618 18.903L121.771 18.463L121.732 18.613C121.452 19.762 120.474 20.422 119.047 20.422C117.391 20.422 116.243 19.252 116.084 17.433H123.807V17.303C123.837 17.133 123.857 16.783 123.857 16.533C123.857 13.774 121.821 11.766 119.007 11.766ZM119.007 13.445C120.524 13.445 121.572 14.325 121.781 15.754H116.203C116.563 14.304 117.6 13.445 119.007 13.445ZM130.842 11.766C129.555 11.766 128.407 12.356 127.629 13.415V11.915H125.683V22.021H127.629V17.563C127.629 15.094 128.717 13.554 130.473 13.554C131.73 13.554 132.539 14.384 132.539 15.673V22.011H134.484V15.363C134.484 14.333 134.155 13.444 133.507 12.794C132.848 12.124 131.9 11.764 130.842 11.764V11.766ZM141.15 11.916C138.266 11.916 136.251 14.065 136.251 17.134C136.251 20.203 138.326 22.342 141.19 22.342C143.535 22.342 145.222 21.172 145.721 19.213L145.761 19.063L143.914 18.623L143.875 18.773C143.595 19.923 142.617 20.582 141.19 20.582C139.534 20.582 138.386 19.412 138.226 17.593H145.95L145.981 17.357C146.001 17.066 146 16.903 146 16.663C146 13.914 143.964 11.915 141.15 11.915V11.916ZM141.15 13.595C142.667 13.595 143.715 14.475 143.924 15.904H138.346C138.705 14.454 139.743 13.595 141.15 13.595ZM97.423 13.685C95.826 13.255 94.449 12.885 94.449 11.666C94.449 10.526 95.447 9.837 97.113 9.837C98.779 9.837 99.857 10.697 100.126 12.136L100.156 12.316L102.052 11.576L102.032 11.456C101.663 9.367 99.687 7.967 97.113 7.967C94.329 7.967 92.373 9.496 92.373 11.686C92.373 14.375 94.708 15.065 96.764 15.675C98.57 16.205 100.126 16.665 100.126 18.244C100.126 19.514 98.979 20.333 97.203 20.333C95.427 20.333 94.06 19.113 93.8 17.304L93.77 17.134L91.794 17.764L91.814 17.894C92.273 20.463 94.408 22.193 97.143 22.193C100.186 22.193 102.232 20.593 102.232 18.214C102.232 14.995 99.568 14.275 97.422 13.696V13.686L97.423 13.685ZM54.514 17.414C54.045 19.263 52.678 20.273 50.662 20.273C47.808 20.273 46.042 18.274 46.042 15.045C46.042 11.816 47.808 9.817 50.662 9.817C52.708 9.817 54.115 10.907 54.524 12.806L54.554 12.956L56.6 12.506L56.57 12.356C55.971 9.627 53.716 7.938 50.673 7.938C47.3 7.938 43.907 10.137 43.907 15.055C43.907 19.973 47.31 22.173 50.673 22.173C53.647 22.173 55.852 20.564 56.57 17.864L56.61 17.714L54.544 17.284L54.504 17.424L54.514 17.414ZM62.926 11.766C59.952 11.766 57.797 13.955 57.797 16.974C57.797 19.993 59.952 22.182 62.926 22.182C65.9 22.182 68.085 19.993 68.085 16.974C68.065 13.955 65.9 11.766 62.926 11.766ZM66.07 16.974C66.07 18.993 64.783 20.403 62.927 20.403C61.071 20.403 59.784 18.993 59.784 16.964C59.784 14.935 61.071 13.525 62.927 13.525C64.783 13.525 66.07 14.935 66.07 16.964V16.974ZM85.928 11.766C83.044 11.766 81.028 13.905 81.028 16.974C81.028 20.043 83.104 22.182 85.967 22.182C88.302 22.182 89.998 21.012 90.497 19.053L90.537 18.903L88.691 18.463L88.651 18.613C88.372 19.762 87.394 20.422 85.967 20.422C84.31 20.422 83.163 19.252 83.003 17.433H90.727C90.724 17.457 90.752 17.312 90.763 17.164C90.788 16.826 90.777 16.773 90.777 16.533C90.777 13.774 88.741 11.765 85.927 11.765L85.928 11.766ZM85.928 13.445C87.445 13.445 88.493 14.325 88.702 15.754H83.124C83.483 14.304 84.521 13.445 85.928 13.445ZM77.256 13.035C76.527 12.255 75.35 11.755 74.193 11.755C71.239 11.755 69.323 13.804 69.323 16.963C69.323 20.122 71.239 22.171 74.213 22.171C75.45 22.171 76.628 21.681 77.266 20.931V22.021H79.212V7.967H77.266V13.035H77.256ZM77.426 16.974C77.406 19.063 76.209 20.413 74.373 20.413C72.537 20.413 71.32 19.063 71.32 16.974C71.32 14.885 72.517 13.535 74.373 13.535C76.229 13.535 77.426 14.884 77.426 16.964V16.974Z" fill="#FFFFFF" />
        </svg>
