<svg width="119" height="24" viewBox="0 0 119 24" fill="none" xmlns="http://www.w3.org/2000/svg">
<mask id="mask0_4606_88092" style="mask-type:alpha" maskUnits="userSpaceOnUse" x="0" y="0" width="23" height="24">
<path d="M0 18.2795V5.78735C0 4.96001 0.50941 4.21808 1.28152 3.92086L10.7395 0.280117C11.2075 0.0999693 11.7261 0.102202 12.1925 0.286371L21.517 3.96819C22.2807 4.26973 22.7825 5.00738 22.7825 5.82843V18.2216C22.7825 19.0458 22.2769 19.7856 21.509 20.085L12.183 23.7209C11.7222 23.9005 11.2113 23.9031 10.7488 23.7281L1.29224 20.1501C0.514513 19.8558 0 19.111 0 18.2795Z" fill="white" fill-opacity="0.8"/>
<path d="M0 18.2795V5.78735C0 4.96001 0.50941 4.21808 1.28152 3.92086L10.7395 0.280117C11.2075 0.0999693 11.7261 0.102202 12.1925 0.286371L21.517 3.96819C22.2807 4.26973 22.7825 5.00738 22.7825 5.82843V18.2216C22.7825 19.0458 22.2769 19.7856 21.509 20.085L12.183 23.7209C11.7222 23.9005 11.2113 23.9031 10.7488 23.7281L1.29224 20.1501C0.514513 19.8558 0 19.111 0 18.2795Z" fill="#DAEBFB"/>
</mask>
<g mask="url(#mask0_4606_88092)">
<path d="M0 19.6613V4.41431L11.4672 8.83451V24.0001L0 19.6613Z" fill="#E3E3F3"/>
<path d="M11.4673 24L11.4651 8.83431L22.7825 4.4679V19.5885L11.4673 24Z" fill="#BABAE0"/>
<path d="M11.4672 8.83426L0 4.41418L11.4672 0L22.7825 4.46788L11.4672 8.83426Z" fill="#D5D5EC"/>
<path d="M3.34912 16.4117V10.0986L8.06797 11.8841V18.261L6.88826 17.7987V19.2578L5.11869 17.1052L4.52883 16.874L3.34912 16.4117Z" fill="#7474C1"/>
<path d="M3.34912 16.4116L8.06797 14.5912V18.2609L6.88826 17.7985V19.2576L5.11869 17.1051L4.52883 16.8739L3.34912 16.4116Z" fill="#9090CD"/>
</g>
<path d="M37.8107 18.825C40.5441 18.825 42.9285 16.9446 42.9285 13.8817V5.23584H40.2339V13.7072C40.2339 15.5295 39.0708 16.2661 37.8107 16.2661C36.5701 16.2661 35.407 15.5295 35.407 13.7072V5.23584H32.7124V13.8817C32.7124 16.9446 35.0968 18.825 37.8107 18.825Z" fill="#1f1a38" fill-opacity="0.9"/>
<path d="M49.782 9.30676C48.8903 9.30676 47.4558 9.84956 47.0681 11.0708V9.53939H44.5286V18.5924H47.0681V13.8429C47.0681 12.1952 48.1924 11.7105 49.1035 11.7105C49.9759 11.7105 50.8288 12.3503 50.8288 13.7654V18.5924H53.3683V13.6297C53.3877 10.9157 52.147 9.30676 49.782 9.30676Z" fill="#1f1a38" fill-opacity="0.9"/>
<path d="M60.396 9.30675C59.3686 9.30675 58.128 9.71385 57.4882 10.625V4.61548H54.9487V18.5924H57.4882V17.468C58.128 18.3985 59.3686 18.825 60.396 18.825C62.7223 18.825 64.8353 16.964 64.8353 14.0562C64.8353 11.1484 62.7223 9.30675 60.396 9.30675ZM59.9114 16.46C58.6707 16.46 57.5658 15.4326 57.5658 14.0562C57.5658 12.6604 58.7289 11.6718 59.9114 11.6718C61.1909 11.6718 62.2377 12.7186 62.2377 14.0562C62.2377 15.3744 61.1909 16.46 59.9114 16.46Z" fill="#1f1a38" fill-opacity="0.9"/>
<path d="M65.9937 18.5924H68.5332V4.61548H65.9937V18.5924Z" fill="#1f1a38" fill-opacity="0.9"/>
<path d="M74.5271 18.825C77.1054 18.825 79.3929 16.9252 79.3929 14.0756C79.3929 11.2065 77.1054 9.30676 74.5271 9.30676C71.9489 9.30676 69.6614 11.2065 69.6614 14.0756C69.6614 16.9252 71.9489 18.825 74.5271 18.825ZM74.5271 16.46C73.2671 16.46 72.2396 15.4713 72.2396 14.0756C72.2396 12.6604 73.2671 11.6718 74.5271 11.6718C75.7872 11.6718 76.8146 12.6604 76.8146 14.0756C76.8146 15.4713 75.7872 16.46 74.5271 16.46Z" fill="#1f1a38" fill-opacity="0.9"/>
<path d="M84.9306 18.825C86.5784 18.825 87.8966 18.069 88.7496 16.8865L86.8304 15.5489C86.4233 16.111 85.6673 16.46 84.95 16.46C83.5155 16.46 82.5462 15.3744 82.5462 14.0368C82.5462 12.7186 83.5155 11.6718 84.95 11.6718C85.6673 11.6718 86.4233 12.0207 86.8304 12.5829L88.7496 11.2453C87.8966 10.0628 86.5784 9.30676 84.9306 9.30676C82.2942 9.30676 79.968 11.1678 79.968 14.0368C79.968 16.9058 82.2942 18.825 84.9306 18.825Z" fill="#1f1a38" fill-opacity="0.9"/>
<path d="M98.5797 18.5924L94.2568 13.5328L97.7849 9.53938H94.5282L92.2407 12.3115V4.61548H89.7012V18.5924H92.2407V14.6765L95.4199 18.5924H98.5797Z" fill="#1f1a38" fill-opacity="0.9"/>
<path d="M107.223 13.9205C107.223 11.1484 105.11 9.30676 102.512 9.30676C99.9336 9.30676 97.7043 11.1484 97.7043 14.0756C97.7043 16.8671 99.7398 18.825 102.531 18.825C104.121 18.825 105.691 18.1465 106.544 17.0028L105.071 15.5101C104.509 16.1498 103.617 16.5763 102.686 16.5763C101.485 16.5763 100.632 15.956 100.36 14.8898H107.164C107.203 14.4827 107.223 14.1725 107.223 13.9205ZM100.36 13.242C100.632 12.0207 101.523 11.4973 102.57 11.4973C103.714 11.4973 104.586 12.1758 104.664 13.242H100.36Z" fill="#1f1a38" fill-opacity="0.9"/>
<path d="M115.131 4.61548V10.6443C114.491 9.71385 113.27 9.30675 112.223 9.30675C109.897 9.30675 107.784 11.1484 107.784 14.0562C107.784 16.964 109.897 18.825 112.223 18.825C113.231 18.825 114.491 18.3985 115.131 17.468V18.5924H117.67V4.61548H115.131ZM112.708 16.46C111.428 16.46 110.362 15.3744 110.362 14.0562C110.362 12.7186 111.428 11.6718 112.708 11.6718C113.89 11.6718 115.053 12.6604 115.053 14.0562C115.053 15.4326 113.948 16.46 112.708 16.46Z" fill="#1f1a38" fill-opacity="0.9"/>
</svg>
