<svg width="121" height="26" viewBox="0 0 121 26" fill="none" xmlns="http://www.w3.org/2000/svg">
<g clip-path="url(#clip0_195_1209)">
<mask id="mask0_195_1209" style="mask-type:alpha" maskUnits="userSpaceOnUse" x="0" y="0" width="25" height="26">
<path d="M0 19.2262V6.8416C0 5.60059 0.764112 4.48769 1.92228 4.04187L11.3308 0.420191C12.0327 0.14997 12.8106 0.153318 13.5103 0.429573L22.7818 4.09048C23.9273 4.54279 24.68 5.64926 24.68 6.88083V19.1697C24.68 20.406 23.9216 21.5157 22.7697 21.9648L13.4959 25.5803C12.8048 25.8497 12.0384 25.8536 11.3446 25.5911L1.93836 22.0321C0.771769 21.5907 0 20.4735 0 19.2262Z" fill="white" fill-opacity="0.8"/>
<path d="M0 19.2262V6.8416C0 5.60059 0.764112 4.48769 1.92228 4.04187L11.3308 0.420191C12.0327 0.14997 12.8106 0.153318 13.5103 0.429573L22.7818 4.09048C23.9273 4.54279 24.68 5.64926 24.68 6.88083V19.1697C24.68 20.406 23.9216 21.5157 22.7697 21.9648L13.4959 25.5803C12.8048 25.8497 12.0384 25.8536 11.3446 25.5911L1.93836 22.0321C0.771769 21.5907 0 20.4735 0 19.2262Z" fill="#DAEBFB"/>
</mask>
<g mask="url(#mask0_195_1209)">
<path d="M12.4225 25.9988L12.4201 9.57005L24.6801 4.83997V21.22L12.4225 25.9988Z" fill="white" fill-opacity="0.5"/>
<path d="M12.4224 9.56999L6.10352e-05 4.78176L12.4224 -6.10352e-05L24.6801 4.83994L12.4224 9.56999Z" fill="white" fill-opacity="0.7"/>
<path fill-rule="evenodd" clip-rule="evenodd" d="M6.10352e-05 4.7818V21.2986L12.4224 25.9988V9.57015L6.10352e-05 4.7818ZM3.62799 10.9396V17.7785L4.90596 18.2793L5.54494 18.5297L7.4619 20.8616V19.281L8.73986 19.7818V12.8739L3.62799 10.9396Z" fill="white" fill-opacity="0.8"/>
<path d="M3.62799 17.7785L8.73986 15.8065V19.7818L7.4619 19.2809V20.8615L5.54494 18.5297L4.90596 18.2793L3.62799 17.7785Z" fill="white" fill-opacity="0.2"/>
</g>
<path d="M32 15.0419V5.67255H34.9202V14.8528C34.9202 16.8274 36.1809 17.6258 37.5254 17.6258C38.87 17.6258 40.1513 16.8274 40.1513 14.8528V5.67255H43.0715V15.0419C43.0715 18.3611 40.4876 20.3989 37.5254 20.3989C34.5633 20.3989 32 18.3611 32 15.0419Z" fill="white"/>
<path d="M53.7442 14.7689V20.1471H50.9919V14.916C50.9919 13.3823 50.0675 12.6891 49.1219 12.6891C48.1762 12.6891 46.9162 13.2145 46.9162 15V20.1471H44.1638V10.3362H46.9162V11.9958C47.3364 10.6725 48.8908 10.0839 49.8571 10.0839C52.4203 10.0839 53.7649 11.8274 53.7436 14.7689H53.7442Z" fill="white"/>
<path d="M65.5302 15.2311C65.5302 18.3824 63.2399 20.3989 60.7193 20.3989C59.6058 20.3989 58.2612 19.9368 57.568 18.9285V20.1472H54.8156V5H57.568V11.5124C58.2612 10.5248 59.6058 10.0839 60.7193 10.0839C63.2406 10.0839 65.5302 12.0798 65.5302 15.2311ZM62.7151 15.2311C62.7151 13.7813 61.5804 12.6472 60.1938 12.6472C58.9125 12.6472 57.6519 13.7187 57.6519 15.2311C57.6519 16.7435 58.8493 17.8363 60.1938 17.8363C61.5384 17.8363 62.7151 16.6596 62.7151 15.2311Z" fill="white"/>
<path d="M66.1396 5H68.892V20.1472H66.1396V5Z" fill="white"/>
<path d="M69.4794 15.2522C69.4794 12.1428 71.9581 10.0844 74.7525 10.0844C77.5468 10.0844 80.0255 12.1435 80.0255 15.2522C80.0255 18.3609 77.5468 20.3994 74.7525 20.3994C71.9581 20.3994 69.4794 18.3403 69.4794 15.2522ZM77.2318 15.2522C77.2318 13.7185 76.1183 12.647 74.7531 12.647C73.3879 12.647 72.2744 13.7185 72.2744 15.2522C72.2744 16.7859 73.3879 17.8361 74.7531 17.8361C76.1183 17.8361 77.2318 16.7646 77.2318 15.2522Z" fill="white"/>
<path d="M80.6348 15.2102C80.6348 12.1009 83.1561 10.0844 86.0131 10.0844C87.7985 10.0844 89.2276 10.9035 90.152 12.1854L88.0722 13.6352C87.6313 13.0259 86.8115 12.6476 86.0344 12.6476C84.4794 12.6476 83.4291 13.7824 83.4291 15.2109C83.4291 16.6393 84.4794 17.8367 86.0344 17.8367C86.8115 17.8367 87.6313 17.4585 88.0722 16.8491L90.152 18.2989C89.2276 19.5802 87.7991 20.4 86.0131 20.4C83.1561 20.4 80.6348 18.3202 80.6348 15.2109V15.2102Z" fill="white"/>
<path d="M96.959 20.1472L93.5133 15.9037V20.1472H90.7609V5H93.5133V13.3404L95.992 10.3363H99.5216L95.6983 14.6643L100.383 20.1478H96.959V20.1472Z" fill="white"/>
<path d="M109.228 16.1346H101.854C102.148 17.29 103.072 17.9626 104.375 17.9626C105.383 17.9626 106.35 17.5004 106.959 16.8072L108.556 18.4248C107.631 19.6642 105.93 20.3994 104.207 20.3994C101.182 20.3994 98.976 18.2776 98.976 15.2522C98.976 12.2268 101.392 10.0844 104.186 10.0844C106.98 10.0844 109.291 12.0802 109.291 15.0844C109.291 15.3574 109.27 15.6937 109.228 16.1346ZM106.518 14.3491C106.434 13.1937 105.488 12.4585 104.249 12.4585C103.114 12.4585 102.148 13.0259 101.854 14.3491H106.518Z" fill="white"/>
<path d="M120.593 5V20.1472H117.841V18.9285C117.148 19.9368 115.782 20.3989 114.69 20.3989C112.168 20.3989 109.879 18.3824 109.879 15.2311C109.879 12.0798 112.169 10.0839 114.69 10.0839C115.825 10.0839 117.148 10.5248 117.841 11.5337V5H120.593ZM117.757 15.2311C117.757 13.7187 116.496 12.6472 115.215 12.6472C113.829 12.6472 112.673 13.782 112.673 15.2311C112.673 16.6803 113.829 17.8363 115.215 17.8363C116.602 17.8363 117.757 16.7228 117.757 15.2311Z" fill="white"/>
</g>
<defs>
<clipPath id="clip0_195_1209">
<rect width="121" height="26" fill="white"/>
</clipPath>
</defs>
</svg>
